<svg width="374" height="284" viewBox="0 0 374 284" fill="none" xmlns="http://www.w3.org/2000/svg">
<path opacity="0.27" d="M333.119 214.29C327.642 224.874 336.568 257.36 246.652 279.532C194.43 292.411 162.338 273.423 151.149 272.728C133.119 271.58 111.331 277.289 94.2597 274.352C89.4821 273.532 79.6443 271.851 67.2396 269.327C63.6228 267.421 19.491 270.738 2.01406 256.201C-15.4629 241.665 88.4927 234.732 18.8302 201.029C5.79917 194.718 15.4347 146.671 67.2396 133.379C96.0649 125.978 88.4012 138.38 136.3 110.459C162.903 94.9697 226.4 93.0422 258.677 103.684C262.034 104.793 265.31 105.829 268.502 106.793L269.079 107.229C321.129 147.535 357.526 110.953 370.852 142.367C386.303 178.875 340.219 200.551 333.119 214.29Z" fill="#6F7CB2" fill-opacity="0.42"/>
<path d="M143.64 156.829C143.004 156.4 142.681 155.649 142.811 154.899L143.159 152.876C143.255 152.319 143.589 151.825 144.078 151.519L204.811 113.453C205.454 113.05 206.268 113.028 206.921 113.397L214.387 117.611L231.445 125.177L244.95 171.946L244.95 142.126C244.95 141.098 244.142 140.254 243.093 140.183L195.323 136.973C194.41 136.912 193.559 137.457 193.25 138.303L182.616 167.357C182.156 168.613 183.066 169.928 184.425 169.972L244.95 171.946L231.445 125.177L254.901 136.869L319.421 162.38C320.334 162.741 320.836 163.696 320.608 164.638L316.126 183.227C316.061 183.498 315.937 183.754 315.764 183.977L301.277 202.668C301.16 202.82 301.022 202.954 300.866 203.067L282.103 216.753C281.975 216.846 281.836 216.924 281.69 216.986L255.817 227.956C255.239 228.201 254.581 228.173 254.036 227.879L229.313 214.589L143.64 156.829Z" fill="#222A72"/>
<path d="M143.518 153.466C142.352 152.67 142.395 150.965 143.602 150.194L204.958 110.968C205.602 110.556 206.424 110.531 207.083 110.903L214.538 115.111L231.597 122.677L245.101 169.446L245.101 139.625C245.101 138.598 244.294 137.754 243.244 137.683L195.474 134.473C194.561 134.412 193.71 134.957 193.401 135.803L182.767 164.857C182.307 166.113 183.217 167.427 184.576 167.472L245.101 169.446L231.597 122.677L255.052 134.369L319.588 161.229C320.492 161.605 320.976 162.567 320.734 163.504L316.28 180.744C316.213 181.004 316.092 181.249 315.926 181.464L301.429 200.168C301.312 200.319 301.173 200.454 301.017 200.567L282.254 214.252C282.126 214.346 281.987 214.424 281.841 214.486L255.968 225.456C255.39 225.701 254.733 225.672 254.187 225.379L229.464 212.088L143.518 153.466Z" fill="#514ED8"/>
<path d="M212.541 170.571C211.363 170.571 214.205 172.634 210.073 172.634C205.942 172.634 206.627 172.467 206.144 171.946C204.966 170.676 207.648 168.313 210.073 169.223C211.83 169.883 210.408 169.883 212.541 170.571Z" fill="#281607"/>
<path d="M212.541 171.258C211.83 171.258 212.032 172.118 210.61 172.118C209.189 172.118 208.981 171.916 208.478 171.43C207.767 170.742 208.838 169.883 210.408 169.883C212.718 169.883 212.541 169.883 212.541 171.258Z" fill="#222A72"/>
<rect x="208.276" y="159.566" width="4.26462" height="11.0045" fill="#222A72"/>
<rect x="209.698" y="159.566" width="2.84308" height="11.0045" fill="#C4C4C4"/>
<path d="M212.541 171.258C212.541 171.638 211.904 171.946 211.119 171.946C210.334 171.946 209.698 171.638 209.698 171.258C209.698 170.878 209.698 169.195 211.119 169.883C212.541 168.507 212.541 170.878 212.541 171.258Z" fill="#C4C4C4"/>
<path d="M252.344 152.688C251.166 152.688 254.008 154.751 249.877 154.751C245.745 154.751 246.43 154.584 245.947 154.063C244.769 152.793 247.451 150.43 249.877 151.34C251.633 152 250.211 152 252.344 152.688Z" fill="#281607"/>
<path d="M252.344 153.376C251.633 153.376 251.835 154.236 250.414 154.236C248.992 154.236 248.784 154.034 248.281 153.548C247.57 152.86 248.641 152 250.211 152C252.521 152 252.344 152 252.344 153.376Z" fill="#222A72"/>
<rect x="248.079" y="141.684" width="4.26462" height="11.0045" fill="#222A72"/>
<rect x="249.501" y="141.684" width="2.84308" height="11.0045" fill="#C4C4C4"/>
<path d="M252.344 153.376C252.344 153.756 251.707 154.064 250.922 154.064C250.137 154.064 249.501 153.756 249.501 153.376C249.501 152.996 249.501 151.313 250.922 152.001C252.344 150.625 252.344 152.996 252.344 153.376Z" fill="#C4C4C4"/>
<path d="M179.845 155.439C178.667 155.439 181.509 157.503 177.378 157.503C173.247 157.503 173.931 157.336 173.448 156.815C172.271 155.545 174.952 153.181 177.378 154.092C179.134 154.752 177.713 154.752 179.845 155.439Z" fill="#281607"/>
<path d="M179.845 156.127C179.134 156.127 179.336 156.987 177.915 156.987C176.493 156.987 176.285 156.785 175.783 156.299C175.072 155.611 176.143 154.751 177.713 154.751C180.023 154.751 179.845 154.751 179.845 156.127Z" fill="#222A72"/>
<rect x="175.581" y="144.435" width="4.26462" height="11.0045" fill="#222A72"/>
<rect x="177.002" y="144.435" width="2.84308" height="11.0045" fill="#C4C4C4"/>
<path d="M179.845 156.127C179.845 156.507 179.209 156.815 178.424 156.815C177.639 156.815 177.002 156.507 177.002 156.127C177.002 155.747 177.002 154.064 178.424 154.751C179.845 153.376 179.845 155.747 179.845 156.127Z" fill="#C4C4C4"/>
<path d="M172.732 144.307C172.117 143.96 171.741 143.319 171.741 142.622L171.741 140.489C171.741 139.576 172.382 138.773 173.292 138.547L214.535 128.314C214.903 128.223 215.288 128.234 215.647 128.345L252.804 139.878C253.631 140.135 254.19 140.882 254.19 141.733L254.19 144.485C254.19 145.287 253.693 146.016 252.933 146.33L209.634 164.241C209.046 164.484 208.38 164.446 207.833 164.137L172.732 144.307Z" fill="#222A72"/>
<path d="M171.625 141.463C170.075 140.61 170.366 138.344 172.089 137.847L214.467 125.606C214.877 125.487 215.313 125.497 215.713 125.635L254.32 138.891C256.048 139.484 256.103 141.849 254.406 142.566L209.627 161.485C209.044 161.731 208.379 161.699 207.831 161.397L171.625 141.463Z" fill="#6F7CB2"/>
<path d="M160.443 97.1985C160.395 96.6215 160.6 96.0524 161.005 95.6381L194.119 61.7101C195.211 60.5906 197.108 61.1024 197.49 62.6195L209.089 108.762C209.284 109.54 208.996 110.36 208.356 110.845L170.854 139.216C170.507 139.478 170.083 139.621 169.648 139.621H165.765C164.724 139.621 163.857 138.822 163.771 137.784L160.443 97.1985Z" fill="#2D3686"/>
<path d="M163.286 97.1983C163.238 96.6213 163.443 96.0521 163.848 95.6378L196.962 61.7099C198.054 60.5904 199.951 61.1021 200.333 62.6192L211.932 108.762C212.127 109.54 211.839 110.36 211.199 110.844L173.697 139.215C173.35 139.478 172.926 139.62 172.491 139.62H168.608C167.567 139.62 166.7 138.822 166.615 137.784L163.286 97.1983Z" fill="#08164C"/>
<path d="M95.1657 112.237L169.765 12.1815L171.516 9.93467C171.987 9.33091 172.615 8.85928 173.334 8.56902V8.56902C173.772 8.39238 174.235 8.28608 174.707 8.25432L177.23 8.08442C177.358 8.07575 177.487 8.09889 177.603 8.15168L179.253 8.9003C179.525 9.02326 179.445 9.41745 179.146 9.43764V9.43764C178.92 9.45285 178.795 9.70158 178.924 9.88133L179.725 11.0039C179.833 11.156 179.898 11.3335 179.913 11.5187L180.026 12.9191L180.162 14.6022L180.168 14.6761C180.26 15.8151 179.94 16.9534 179.264 17.8959L104.217 122.505C103.657 123.286 102.877 123.896 101.972 124.262L101.532 124.439C100.438 124.881 99.223 124.94 98.097 124.606L96.8321 124.231C96.3574 124.09 95.9073 123.882 95.4962 123.613L95.2464 123.45C93.9772 122.62 93.1693 121.274 93.0494 119.788L92.9675 118.772L92.8878 117.784C92.807 116.784 93.0437 115.78 93.5659 114.908L95.1657 112.237Z" fill="#222A72"/>
<path d="M102.303 109.417L172.731 13.5877L173.884 12.0988C174.138 11.7704 174.433 11.4737 174.762 11.2153L175.638 10.5273C176.212 10.0763 176.921 9.81777 177.656 9.79098V9.79098C178.345 9.76583 179.025 9.94605 179.602 10.3074L179.759 10.4053C179.996 10.5541 180.217 10.7273 180.416 10.9221L180.497 11.0008C180.743 11.2419 180.959 11.5109 181.14 11.8023V11.8023C181.56 12.4816 181.777 13.263 181.764 14.059L181.76 14.3327L181.737 15.8241L181.736 15.9263C181.72 16.9193 181.396 17.8876 180.806 18.7041L108.989 118.014C108.51 118.676 107.873 119.216 107.132 119.585L106.863 119.72C105.78 120.26 104.537 120.408 103.359 120.137L102.795 120.007C102.364 119.907 101.955 119.735 101.586 119.498V119.498C100.52 118.812 99.8881 117.646 99.9072 116.398L99.9223 115.416L99.936 114.521C99.9495 113.642 100.205 112.78 100.676 112.025L102.303 109.417Z" fill="#B6B3B3"/>
<path d="M152.463 54.3163C152.274 54.0022 152.12 53.6691 152.005 53.3232L151.279 51.1423C151.185 50.8611 151.117 50.5727 151.076 50.2804L150.95 49.3869C150.867 48.799 150.902 48.2026 151.051 47.6305V47.6305C151.207 47.0349 151.484 46.4776 151.867 45.9918L152.494 45.1961L152.564 45.1066C153.844 43.482 156.266 43.2379 157.901 44.5686L157.988 44.6389C158.593 45.1315 159.01 45.8095 159.168 46.5596V46.5596C159.233 46.8709 159.344 47.1722 159.496 47.4542L174.655 75.5125L192.783 103.128C192.98 103.427 193.107 103.764 193.157 104.115V104.115C193.278 104.978 192.916 105.832 192.207 106.35L190.343 107.714C189.982 107.978 189.581 108.186 189.153 108.33V108.33C187.162 108.999 184.945 108.189 183.866 106.4L152.463 54.3163Z" fill="#222A72"/>
<path d="M153.677 49.7454C153.325 49.167 153.097 48.5266 153.005 47.8631L152.93 47.317C152.889 47.0235 152.876 46.7273 152.89 46.4322L152.937 45.421C152.949 45.1629 152.983 44.9066 153.039 44.6548V44.6548C153.21 43.8924 153.579 43.1882 154.111 42.6096L155.023 41.6175V41.6175C156.349 40.0458 158.842 40.0954 160.148 41.7194L162.154 44.2153C162.339 44.4455 162.503 44.6908 162.644 44.9484L179.051 74.893L196.38 100.661C197.851 102.848 197.323 105.767 195.205 107.315V107.315C192.803 109.069 189.31 108.394 187.76 105.842L153.677 49.7454Z" fill="#ACA9A9"/>
<path d="M175.117 17.4302C174.973 17.0709 174.871 16.6968 174.813 16.3157L174.502 14.2487C174.456 13.9417 174.439 13.6316 174.452 13.3224L174.483 12.5336C174.507 11.9406 174.65 11.3599 174.902 10.8248V10.8248C175.155 10.2906 175.512 9.81233 175.954 9.41728L176.737 8.71802L177.003 8.48093C178.461 7.17805 180.734 7.30276 182.082 8.75959L182.215 8.90369C182.72 9.44848 183.009 10.1515 183.032 10.8827V10.8827C183.041 11.1859 183.096 11.4868 183.196 11.7752L193.081 40.393L205.94 68.9502C206.087 69.2781 206.157 69.6339 206.143 69.9899V69.9899C206.11 70.8113 205.637 71.5467 204.9 71.9219L202.719 73.033C202.341 73.2257 201.935 73.3624 201.515 73.4389V73.4389C199.43 73.8183 197.344 72.6715 196.556 70.7134L175.117 17.4302Z" fill="#222A72"/>
<path d="M177.201 16.1737C176.972 15.6081 176.85 15.0077 176.839 14.4021L176.832 13.9798C176.827 13.702 176.846 13.4248 176.888 13.1509L177.02 12.301C177.051 12.0975 177.1 11.8971 177.165 11.7019V11.7019C177.376 11.0652 177.757 10.4984 178.269 10.0603L179.034 9.40449V9.40449C180.211 8.29763 182.153 8.61846 182.938 10.0495L184.457 12.8142C184.58 13.0384 184.685 13.2716 184.771 13.5115L194.976 41.9198L206.505 67.3268C207.36 69.2094 206.622 71.3997 204.807 72.3715V72.3715C202.696 73.5015 200.027 72.5304 199.125 70.3041L177.201 16.1737Z" fill="#A4A1A1"/>
<path d="M154.847 45.6122C154.781 44.835 155.22 44.1635 155.827 44.1122C157.046 44.0093 156.98 44.6493 157.046 45.4265C157.234 46.205 156.672 46.8752 156.065 46.9265C155.458 46.9777 154.912 46.3893 154.847 45.6122Z" fill="#222A72"/>
<path d="M155.328 45.2919C155.279 44.7079 155.746 44.1236 156.192 44.086C156.637 44.0483 157.039 44.5286 157.088 45.1126C157.138 45.6966 156.919 46.6472 156.231 46.7052C155.785 46.7429 155.378 45.8758 155.328 45.2919Z" fill="#514ED8"/>
<path d="M155.328 45.2919C155.279 44.7079 155.746 44.1236 156.192 44.086C156.637 44.0483 157.039 44.5286 157.088 45.1126C157.138 45.6966 156.919 46.6472 156.231 46.7052C155.785 46.7429 155.378 45.8758 155.328 45.2919Z" fill="#514ED8"/>
<path d="M178.967 13.9742C178.901 13.1971 179.341 12.5255 179.948 12.4742C181.166 12.3713 181.101 13.0114 181.166 13.7885C181.354 14.5671 180.793 15.2372 180.186 15.2885C179.578 15.3398 179.033 14.7514 178.967 13.9742Z" fill="#222A72"/>
<path d="M179.449 13.6539C179.4 13.0699 179.866 12.4857 180.312 12.448C180.758 12.4104 181.16 12.8906 181.209 13.4746C181.258 14.0586 181.039 15.0092 180.352 15.0673C179.906 15.1049 179.498 14.2379 179.449 13.6539Z" fill="#514ED8"/>
<path d="M179.449 13.6539C179.4 13.0699 179.866 12.4857 180.312 12.448C180.758 12.4104 181.16 12.8906 181.209 13.4746C181.258 14.0586 181.039 15.0092 180.352 15.0673C179.906 15.1049 179.498 14.2379 179.449 13.6539Z" fill="#514ED8"/>
<path d="M188.918 99.2596C188.852 98.4825 189.291 97.8109 189.899 97.7596C191.117 97.6567 191.051 98.2968 191.117 99.0739C191.305 99.8525 190.744 100.523 190.136 100.574C189.529 100.625 188.984 100.037 188.918 99.2596Z" fill="#222A72"/>
<path d="M189.4 98.9393C189.35 98.3553 189.817 97.7711 190.263 97.7334C190.708 97.6958 191.11 98.176 191.16 98.76C191.209 99.344 190.99 100.295 190.302 100.353C189.857 100.39 189.449 99.5233 189.4 98.9393Z" fill="#514ED8"/>
<path d="M189.4 98.9393C189.35 98.3553 189.817 97.7711 190.263 97.7334C190.708 97.6958 191.11 98.176 191.16 98.76C191.209 99.344 190.99 100.295 190.302 100.353C189.857 100.39 189.449 99.5233 189.4 98.9393Z" fill="#514ED8"/>
<path d="M167.528 121.023C167.502 120.352 168.131 119.847 168.781 120.017L216.541 132.562C216.953 132.67 217.252 133.027 217.284 133.452L218.545 149.917C218.597 150.601 217.961 151.134 217.297 150.962L168.907 138.431C168.479 138.321 168.175 137.943 168.158 137.501L167.528 121.023Z" fill="#929ECC"/>
<path d="M209.411 138.242C209.411 137.564 210.073 137.082 210.718 137.291L212.983 138.021C213.396 138.154 213.676 138.539 213.676 138.973V142.374C213.676 143.052 213.015 143.534 212.369 143.325L210.104 142.595C209.691 142.462 209.411 142.077 209.411 141.643V138.242Z" fill="#6F7CB2"/>
<path d="M209.411 138.464C209.411 137.726 210.183 137.242 210.847 137.564L211.69 137.972C212.035 138.139 212.254 138.488 212.254 138.872V141.101C212.254 141.748 211.649 142.225 211.019 142.073L210.176 141.869C209.728 141.76 209.411 141.358 209.411 140.897V138.464Z" fill="#C4C4C4"/>
<path d="M171.03 128.614C171.03 127.935 171.691 127.454 172.337 127.662L174.601 128.392C175.014 128.526 175.294 128.91 175.294 129.344V132.745C175.294 133.423 174.633 133.905 173.987 133.697L171.723 132.966C171.31 132.833 171.03 132.448 171.03 132.014V128.614Z" fill="#6F7CB2"/>
<path d="M171.03 128.835C171.03 128.097 171.801 127.613 172.465 127.935L173.308 128.343C173.654 128.51 173.873 128.859 173.873 129.243V131.472C173.873 132.119 173.267 132.596 172.638 132.444L171.795 132.24C171.346 132.131 171.03 131.73 171.03 131.268V128.835Z" fill="#C4C4C4"/>
<path d="M188.799 127.928L191.642 128.616V141.684L188.799 140.996V127.928Z" fill="#6F7CB2"/>
<path d="M48.7294 167.999L37.9395 175.392L21.5213 177.192L21.5921 173.066L62.3857 159.276L62.4565 155.15L68.1183 156.616L80.9104 156.822L78.6957 161.602L88.5625 166.575L88.4799 171.389L83.5642 167.871L78.5305 171.229L76.4811 166.381L70.7367 169.728L72.217 166.313L48.7294 167.999Z" fill="#08164C"/>
<path d="M113.372 209.967L127.969 187.845L127.317 184.395L120.352 176.029L123.941 174.023L124 170.584L121.891 169.175L127.577 169.266L127.636 165.828L121.252 165.037L126.262 163.054L127.742 159.638L92.1022 165.257L92.0431 168.695L104.906 164.775L92.0195 170.07L91.9605 173.509L106.268 168.236L97.6223 174.976L97.5633 178.414L105.463 173.726L105.345 180.603L108.934 178.597L108.899 180.66L115.781 193.84L108.639 195.789L113.372 209.967Z" fill="#08164C"/>
<path d="M113.431 206.528L128.028 184.407L120.411 172.59L124 170.584L120.505 167.089L127.636 165.828L122.708 162.997L127.742 159.638L115.684 158.069L91.4505 161.807L92.1022 165.257L97.7875 165.348L92.0195 170.07L99.8369 170.196L97.6223 174.976L104.788 171.651L105.404 177.164L108.993 175.158L108.958 177.221L115.177 187.639L108.651 195.101L113.431 206.528Z" fill="#C4C4C4"/>
<path d="M48.0522 163.862L37.2623 171.256L20.8441 173.055L43.9062 156.917L61.7084 155.139L61.7793 151.013L67.441 152.48L80.2331 152.686L78.0185 157.465L87.8853 162.439L87.8027 167.253L82.887 163.734L77.8533 167.093L75.8039 162.245L70.0595 165.592L71.5398 162.176L48.0522 163.862Z" fill="#C4C4C4"/>
<path d="M98.994 136.476L128.096 139.008L127.987 145.379C127.974 146.145 127.668 146.878 127.132 147.426L106.146 168.91C105.332 169.744 104.11 170.031 103.011 169.648L75.8393 160.18L75.9574 153.303L98.994 136.476Z" fill="#08164C"/>
<path d="M98.1944 129.585L123.947 136.489C126.146 137.079 126.909 139.809 125.336 141.457L105.097 162.664C104.282 163.519 103.042 163.816 101.928 163.424L74.5276 153.772L98.1944 129.585Z" fill="#C4C4C4"/>
<path d="M109.227 120.132L138.329 122.663L138.219 129.035C138.206 129.801 137.901 130.533 137.365 131.081L116.378 152.566C115.564 153.399 114.342 153.687 113.243 153.304L86.072 143.835L86.19 136.958L109.227 120.132Z" fill="#3F3D56"/>
<path d="M109.848 113.263L135.601 120.168C137.8 120.757 138.563 123.487 136.99 125.135L116.751 146.342C115.936 147.197 114.695 147.494 113.582 147.102L86.1815 137.45L109.848 113.263Z" fill="#B8C0E1"/>
<path d="M178.848 142.154C178.848 142.558 177.894 143.253 176.716 143.253C175.538 143.253 174.584 142.925 174.584 142.52C174.584 142.115 174.584 141.42 176.716 141.787C177.894 141.787 178.848 141.749 178.848 142.154Z" fill="#08164C"/>
<path d="M178.848 142.417C178.848 142.822 177.894 143.15 176.716 143.15C175.538 143.15 174.584 142.822 174.584 142.417C174.584 142.012 175.538 141.684 176.716 141.684C177.894 141.684 178.848 141.684 178.848 142.417Z" fill="#2B3869"/>
<path d="M212.965 158.66C212.965 159.065 212.011 159.76 210.833 159.76C209.655 159.76 208.701 159.432 208.701 159.027C208.701 158.622 208.701 157.927 210.833 158.294C212.011 158.294 212.965 158.255 212.965 158.66Z" fill="#08164C"/>
<path d="M212.965 158.924C212.965 159.328 212.011 159.657 210.833 159.657C209.655 159.657 208.701 159.328 208.701 158.924C208.701 158.519 209.655 158.19 210.833 158.19C212.011 158.19 212.965 158.19 212.965 158.924Z" fill="#2B3869"/>
<path d="M82.1835 152.194C82.1835 152.954 81.2288 154.258 80.0511 154.258C78.8735 154.258 77.9188 153.642 77.9188 152.882C77.9188 152.122 77.9188 150.819 80.0511 151.507C81.2288 151.507 82.1835 151.435 82.1835 152.194Z" fill="#08164C"/>
<path d="M103.507 159.072C103.507 159.832 102.552 161.135 101.374 161.135C100.197 161.135 99.242 160.519 99.242 159.76C99.242 159 99.242 157.696 101.374 158.384C102.552 158.384 103.507 158.312 103.507 159.072Z" fill="#08164C"/>
<path d="M103.507 159.566C103.507 160.325 102.552 160.941 101.374 160.941C100.197 160.941 99.242 160.325 99.242 159.566C99.242 158.806 100.197 158.19 101.374 158.19C102.552 158.19 103.507 158.19 103.507 159.566Z" fill="#2B3869"/>
<ellipse cx="80.0511" cy="152.688" rx="2.13231" ry="1.37557" fill="#2B3869"/>
<path d="M111.115 125.434L128.492 105.842L128.685 120.772L111.309 140.364L111.115 125.434Z" fill="#2B3869"/>
<path d="M91.5439 135.694L89.2523 118.898L111.115 125.434L111.309 140.364L91.5439 135.694Z" fill="#08164C"/>
<path d="M89.2841 119.83L107.702 102.122L128.496 105.877L111.141 125.453L89.2841 119.83Z" fill="#08164C"/>
<path d="M215.808 104.543L191.642 104.543L166.054 61.9009L194.732 67.4031L215.808 104.543Z" fill="#838383"/>
<path d="M215.808 104.543L191.642 104.543L166.054 61.9009L194.732 67.4031L215.808 104.543Z" fill="#838383"/>
<path d="M225.759 131.023L190.221 119.331V114.516L225.759 124.833V131.023Z" fill="#222A72"/>
<path d="M225.759 131.023L190.221 119.331V114.516L225.759 124.833V131.023Z" fill="#222A72"/>
<path d="M235.71 125.177L200.171 113.484V108.67L235.71 118.987V125.177Z" fill="#222A72"/>
<path d="M235.71 125.177L200.171 113.484V108.67L235.71 118.987V125.177Z" fill="#222A72"/>
<path d="M113.921 126.057C113.674 123.668 115.069 121.255 118.261 121.255C120.834 121.255 121.984 122.994 120.816 125.581C121.063 127.97 119.719 130.014 117.815 130.145C115.911 130.277 114.168 128.446 113.921 126.057Z" fill="#222A72"/>
<path d="M116.066 126.183C115.819 123.794 117.627 121.385 119.531 121.254C121.435 121.122 122.714 123.318 122.961 125.707C123.208 128.096 121.865 130.14 119.96 130.271C118.056 130.403 116.313 128.573 116.066 126.183Z" fill="#9E8F8F"/>
<path d="M119.42 130.192C118.841 130.228 118.269 130.044 117.818 129.679V129.679C117.687 129.574 117.569 129.454 117.464 129.323L117.096 128.864C116.935 128.662 116.789 128.447 116.661 128.223V128.223C116.397 127.761 116.208 127.259 116.103 126.738L115.783 125.162L115.623 124.45C115.244 122.769 116.185 121.075 117.811 120.511V120.511C118.203 120.375 118.618 120.312 119.034 120.326L133.896 120.822C134.217 120.832 134.537 120.812 134.853 120.762L145.683 119.029C148.394 118.595 150.918 120.53 151.205 123.262V123.262C151.488 125.962 149.468 128.349 146.759 128.516L119.42 130.192Z" fill="#ACA9A9"/>
<path d="M114.077 123.467C113.747 119.688 115.612 115.871 119.876 115.871C123.315 115.871 124.852 118.623 123.291 122.714C123.621 126.494 121.826 129.726 119.281 129.934C116.737 130.142 114.406 127.247 114.077 123.467Z" fill="#222A72"/>
<path d="M116.884 124.358C116.584 120.93 119.03 117.454 121.574 117.246C124.119 117.038 125.799 120.177 126.098 123.605C126.397 127.033 124.577 129.981 122.033 130.189C119.488 130.397 117.183 127.787 116.884 124.358Z" fill="#C4C4C4"/>
<path d="M186.315 65.963C186.18 65.738 186.063 65.5032 185.965 65.2608L184.549 61.749L184.067 59.8457C183.934 59.3236 183.889 58.7851 183.934 58.2515L183.946 58.11C184.006 57.3959 184.225 56.7054 184.587 56.0864L184.994 55.3923V55.3923C185.957 53.748 188.273 53.4715 189.657 54.8358L190.744 55.908C191.227 56.3845 191.584 56.9688 191.781 57.6086L191.943 58.1319C192.044 58.459 192.179 58.7755 192.347 59.0764L212.265 94.8809L235.147 130.699C235.324 130.977 235.456 131.28 235.536 131.597V131.597C235.825 132.734 235.428 133.923 234.514 134.664L233.55 135.445C233.103 135.807 232.579 136.07 232.016 136.215V136.215C230.242 136.672 228.358 135.906 227.421 134.347L186.315 65.963Z" fill="#222A72"/>
<path d="M187.48 60.7439C187.161 60.2179 186.944 59.6404 186.838 59.0404L186.689 58.1904C186.641 57.9159 186.617 57.6383 186.616 57.3604L186.615 56.1778C186.614 55.9178 186.636 55.6585 186.679 55.4025V55.4025C186.819 54.5723 187.184 53.7966 187.736 53.1552L188.571 52.1848V52.1848C189.831 50.5761 192.331 50.5991 193.607 52.2312L196.083 55.3984C196.246 55.6081 196.393 55.8299 196.521 56.0617L214.9 89.3169L234.308 118.512C235.747 120.677 235.231 123.558 233.163 125.111V125.111C230.764 126.914 227.215 126.26 225.653 123.683L187.48 60.7439Z" fill="#ACA9A9"/>
<path d="M111.485 120.023L176.076 33.2992L177.544 31.4251C177.987 30.8607 178.593 30.4368 179.283 30.2084V30.2084C179.662 30.083 180.059 30.019 180.458 30.019L182.95 30.019C183.057 30.019 183.163 30.0431 183.258 30.0894L184.97 30.9168C185.203 31.0294 185.117 31.3717 184.856 31.3717V31.3717C184.651 31.3717 184.533 31.5998 184.656 31.7577L185.525 32.8717C185.621 32.9944 185.684 33.1387 185.707 33.2914L185.911 34.603L186.151 36.1473V36.1473C186.319 37.2289 186.054 38.336 185.409 39.2412L121.016 129.638C120.391 130.516 119.491 131.176 118.452 131.519V131.519C117.375 131.876 116.208 131.872 115.141 131.507L113.782 131.044C113.373 130.904 112.984 130.713 112.625 130.477L112.107 130.135C110.952 129.373 110.179 128.178 109.97 126.834L109.818 125.852L109.717 125.208C109.549 124.124 109.759 123.013 110.314 122.052L111.485 120.023Z" fill="#222A72"/>
<path d="M113.624 123.861L178.673 35.1956L179.682 33.8958C179.956 33.5423 180.277 33.2258 180.638 32.9545L181.316 32.4436C181.906 31.9985 182.632 31.7567 183.376 31.7567V31.7567C184.018 31.7567 184.645 31.9367 185.181 32.2751L185.405 32.4166C185.639 32.5644 185.857 32.7345 186.056 32.9244L186.157 33.0205C186.395 33.2483 186.607 33.5015 186.787 33.7755V33.7755C187.229 34.4456 187.472 35.2219 187.49 36.0203L187.495 36.2169L187.528 37.6339V37.6339C187.551 38.6378 187.242 39.6255 186.646 40.4522L120.562 132.116C120.05 132.826 119.35 133.398 118.545 133.768V133.768C117.453 134.271 116.206 134.388 115.045 134.088L114.491 133.944C114.07 133.835 113.67 133.66 113.309 133.426V133.426C112.232 132.729 111.576 131.566 111.546 130.305L111.527 129.481L111.511 128.778C111.489 127.849 111.739 126.93 112.232 126.128L113.624 123.861Z" fill="#C4C4C4"/>
<path d="M124.944 133.574L183.582 54.7776L184.88 53.1278C185.307 52.5854 185.902 52.1897 186.576 51.9997V51.9997C186.919 51.903 187.275 51.8616 187.631 51.8771L190.106 51.9849C190.2 51.9889 190.291 52.0126 190.374 52.0543L192.12 52.9296C192.331 53.0353 192.242 53.3468 192.004 53.3364V53.3364C191.813 53.3281 191.699 53.5427 191.818 53.6871L192.73 54.7957C192.817 54.9012 192.877 55.0255 192.904 55.1584L193.165 56.418L193.467 57.8798V57.8798C193.677 58.8987 193.451 59.9609 192.84 60.8226L134.688 142.898C134.071 143.768 133.163 144.405 132.12 144.699V144.699C131.148 144.973 130.113 144.934 129.172 144.587L127.615 144.012C127.244 143.875 126.892 143.697 126.566 143.48L125.877 143.023C124.798 142.307 124.051 141.209 123.793 139.962L123.591 138.983L123.501 138.546C123.267 137.412 123.453 136.23 124.026 135.209L124.944 133.574Z" fill="#222A72"/>
<path d="M127.686 135.233L186.15 55.3374L186.997 54.2503C187.286 53.8787 187.63 53.5501 188.018 53.2754L188.464 52.9586C189.078 52.5235 189.826 52.3055 190.581 52.3414V52.3414C191.165 52.3691 191.729 52.5474 192.215 52.8578L192.519 53.0519C192.749 53.1986 192.964 53.365 193.163 53.5492L193.288 53.6648C193.517 53.8773 193.724 54.1121 193.904 54.3657V54.3657C194.371 55.0239 194.649 55.792 194.71 56.5921L194.718 56.6967L194.819 58.0227V58.0227C194.891 58.9581 194.626 59.8918 194.071 60.6654L134.859 143.17C134.356 143.871 133.657 144.42 132.847 144.75V144.75C131.858 145.153 130.759 145.21 129.739 144.91L129.01 144.696C128.602 144.576 128.215 144.398 127.861 144.167V144.167C126.773 143.456 126.082 142.3 125.985 141.025L125.936 140.39L125.901 139.929C125.825 138.934 126.063 137.937 126.583 137.07L127.686 135.233Z" fill="#C4C4C4"/>
<path d="M196.618 24.7603L200.679 21.4853C200.814 21.3762 200.94 21.2556 201.054 21.1248L208.539 12.5652C208.647 12.4421 208.744 12.3103 208.83 12.1713L212.68 5.96236C212.869 5.65815 213.11 5.39015 213.393 5.17103L215.711 3.37697C216.235 2.97133 216.879 2.75122 217.541 2.75122H217.687C218.716 2.75122 219.659 3.32536 220.131 4.23945V4.23945C220.54 5.03163 220.54 5.97308 220.131 6.76527L219.488 8.00971C219.404 8.17189 219.306 8.32609 219.194 8.47037L217.23 11.0046L207.43 24.5519C207.33 24.6906 207.241 24.8376 207.166 24.9913L200.882 37.8282L196.723 45.2059C196.653 45.331 196.591 45.4611 196.54 45.595L194.485 50.8961L193.064 54.335L192.208 56.406C191.865 57.2339 191.058 57.7739 190.162 57.7739V57.7739C189.736 57.7739 189.32 57.6512 188.962 57.4205L188.751 57.2846C187.895 56.7321 187.378 55.7827 187.378 54.7636V52.9594V50.8961V48.5262C187.378 48.2731 187.345 48.0209 187.282 47.7758L186.96 46.5289C186.771 45.799 186.315 45.1669 185.682 44.7583L184.961 44.2937C184.679 44.1114 184.367 43.9779 184.041 43.8988L181.691 43.3305L181.13 43.1494C180.152 42.8339 179.403 42.0397 179.146 41.0446L178.944 40.2607C178.88 40.0156 178.848 39.7634 178.848 39.5103V37.5217C178.848 37.2685 178.88 37.0164 178.944 36.7713L179.475 34.7161C179.531 34.4989 179.611 34.2887 179.714 34.0894L180.352 32.8549C180.751 32.0821 181.466 31.5207 182.312 31.3161L183.824 30.9504L187.378 29.5748L190.686 28.294C190.849 28.2309 191.007 28.1538 191.156 28.0633L196.618 24.7603Z" fill="#222A72"/>
<path d="M199.461 24.7603L203.522 21.4853C203.657 21.3762 203.783 21.2556 203.897 21.1248L211.382 12.5652C211.49 12.4421 211.587 12.3103 211.673 12.1713L215.523 5.96236C215.712 5.65815 215.953 5.39015 216.236 5.17103L218.554 3.37697C219.078 2.97133 219.722 2.75122 220.384 2.75122H220.53C221.559 2.75122 222.502 3.32536 222.974 4.23945V4.23945C223.384 5.03163 223.384 5.97308 222.974 6.76527L222.331 8.00971C222.247 8.17189 222.149 8.32609 222.037 8.47037L220.073 11.0046L210.273 24.5519C210.173 24.6906 210.084 24.8376 210.009 24.9913L203.725 37.8282L199.567 45.2059C199.496 45.331 199.435 45.4611 199.383 45.595L197.328 50.8961L195.907 54.335L195.051 56.406C194.708 57.2339 193.901 57.7739 193.005 57.7739V57.7739C192.579 57.7739 192.163 57.6512 191.805 57.4205L191.594 57.2846C190.738 56.7321 190.221 55.7827 190.221 54.7636V52.9594V50.8961V48.5262C190.221 48.2731 190.189 48.0209 190.125 47.7758L189.803 46.5289C189.615 45.799 189.158 45.1669 188.525 44.7583L187.805 44.2937C187.522 44.1114 187.211 43.9779 186.884 43.8988L184.534 43.3305L183.973 43.1494C182.995 42.8339 182.246 42.0397 181.989 41.0446L181.787 40.2607C181.723 40.0156 181.691 39.7634 181.691 39.5103V37.5217C181.691 37.2685 181.723 37.0164 181.787 36.7713L182.318 34.7161C182.374 34.4989 182.454 34.2887 182.557 34.0894L183.195 32.8549C183.594 32.0821 184.309 31.5207 185.155 31.3161L186.667 30.9504L190.221 29.5748L193.53 28.294C193.693 28.2309 193.85 28.1538 193.999 28.0633L199.461 24.7603Z" fill="#6F7CB2"/>
<path d="M218.365 12.5851C218.215 12.2446 218.104 11.8916 218.035 11.5328L217.576 9.13831C217.52 8.84733 217.492 8.55383 217.492 8.26141L217.492 7.31826C217.492 6.69697 217.62 6.08927 217.869 5.52897V5.52897C218.126 4.95204 218.506 4.43687 218.986 4.01383L219.791 3.30611L219.932 3.18209C221.534 1.77204 224.138 1.96356 225.693 3.60574L225.794 3.7121C226.371 4.32149 226.718 5.0885 226.774 5.88135V5.88135C226.798 6.21034 226.871 6.53741 226.993 6.85241L239.069 38.1671L254.408 69.5492C254.577 69.8946 254.665 70.2664 254.665 70.6376V70.6376C254.665 71.5359 254.154 72.3348 253.326 72.7311L251.078 73.808C250.655 74.0103 250.198 74.1488 249.723 74.2185V74.2185C247.472 74.5487 245.187 73.3038 244.281 71.2528L218.365 12.5851Z" fill="#222A72"/>
<path d="M220.501 9.75204C220.276 9.24514 220.139 8.71171 220.097 8.17359L220.041 7.4618C220.022 7.20805 220.023 6.95447 220.045 6.70341L220.134 5.70149C220.152 5.49733 220.187 5.29584 220.239 5.0989V5.0989C220.421 4.41028 220.803 3.79419 221.344 3.31799L222.049 2.69735V2.69735C223.184 1.58793 225.21 1.92503 226.037 3.36101L228 6.76886C228.119 6.97641 228.223 7.19081 228.311 7.41044L240.942 38.8703L254.936 67.5009C255.846 69.3639 255.163 71.4875 253.351 72.4242V72.4242C251.192 73.5405 248.362 72.5237 247.363 70.2722L220.501 9.75204Z" fill="#C4C4C4"/>
<path d="M214.415 109.344C214.397 108.907 214.523 108.476 214.773 108.117L246.285 62.9866C247.406 61.3824 249.925 62.175 249.925 64.1316V112.904C249.925 113.283 249.818 113.654 249.615 113.974L223.152 155.755C222.996 156 222.79 156.208 222.546 156.366L219.457 158.358C218.157 159.197 216.439 158.306 216.375 156.76L214.415 109.344Z" fill="#222A72"/>
<path d="M217.257 110.719C217.239 110.282 217.365 109.851 217.616 109.493L249.129 64.3621C250.249 62.7579 252.768 63.5505 252.768 65.5071V114.234C252.768 114.642 252.644 115.039 252.412 115.374L222.764 158.103C221.67 159.679 219.199 158.96 219.122 157.043L217.257 110.719Z" fill="#C4C4C4"/>
<path d="M244.95 105.231C244.95 109.358 236.421 125.177 229.313 129.303C224.21 129.303 221.494 125.26 221.494 113.484C224.337 100.417 234.871 90.7876 239.974 90.7876C245.078 90.7876 244.95 93.4556 244.95 105.231Z" fill="#08164C"/>
<path d="M244.95 110.733C244.95 114.86 237.131 125.176 230.024 129.303C224.921 129.303 224.337 126.635 224.337 114.86C227.181 101.792 239.797 92.1628 242.817 92.1628C245.838 92.1628 244.95 98.9576 244.95 110.733Z" fill="#6F7CB2"/>
<path d="M231.445 109.358L244.239 96.2898L258.454 99.0409L246.371 113.484L231.445 109.358Z" fill="#08164C"/>
<path d="M232.867 121.05L231.445 108.67L246.371 113.484V124.489L232.867 121.05Z" fill="#08164C"/>
<path d="M245.661 113.484L257.744 99.0408V110.045L245.661 124.489V113.484Z" fill="#2B3869"/>
<path d="M183.398 38.0295C183.246 36.2921 184.104 34.5376 186.067 34.5376C187.65 34.5376 188.357 35.8023 187.639 37.6833C187.791 39.4207 186.964 40.9065 185.793 41.0021C184.622 41.0977 183.55 39.7668 183.398 38.0295Z" fill="#222A72"/>
<path d="M184.283 38.1211C184.131 36.3837 185.243 34.6326 186.414 34.537C187.586 34.4414 188.372 36.0376 188.524 37.7749C188.676 39.5123 187.85 40.9981 186.678 41.0937C185.507 41.1893 184.435 39.8584 184.283 38.1211Z" fill="#A29D9D"/>
<path d="M190.434 53.8086C190.32 52.4187 190.964 51.0151 192.436 51.0151C193.623 51.0151 194.154 52.0268 193.615 53.5317C193.729 54.9215 193.109 56.1102 192.231 56.1867C191.353 56.2632 190.548 55.1985 190.434 53.8086Z" fill="#222A72"/>
<path d="M191.098 53.8817C190.984 52.4918 191.818 51.0909 192.697 51.0144C193.575 50.938 194.165 52.2149 194.279 53.6047C194.393 54.9946 193.773 56.1833 192.895 56.2598C192.016 56.3363 191.212 55.2716 191.098 53.8817Z" fill="#A29D9D"/>
<path d="M115.235 128.817C115.045 127.08 116.118 125.325 118.572 125.325C120.55 125.325 121.434 126.59 120.537 128.471C120.726 130.209 119.693 131.694 118.229 131.79C116.766 131.886 115.425 130.555 115.235 128.817Z" fill="#222A72"/>
<path d="M116.342 128.909C116.152 127.172 117.542 125.42 119.006 125.325C120.47 125.229 121.453 126.825 121.643 128.563C121.833 130.3 120.8 131.786 119.336 131.882C117.872 131.977 116.531 130.646 116.342 128.909Z" fill="#A29D9D"/>
<path d="M220.358 7.03931C220.206 5.64943 221.064 4.24579 223.027 4.24579C224.61 4.2458 225.317 5.25755 224.599 6.76237C224.751 8.15225 223.924 9.34096 222.753 9.41743C221.582 9.49391 220.51 8.42918 220.358 7.03931Z" fill="#222A72"/>
<path d="M221.243 7.11239C221.091 5.72252 222.203 4.32162 223.374 4.24515C224.546 4.16868 225.332 5.44558 225.484 6.83546C225.636 8.22533 224.81 9.41404 223.639 9.49052C222.467 9.56699 221.395 8.50227 221.243 7.11239Z" fill="#A29D9D"/>
<path d="M248.789 68.9402C248.637 67.5503 249.495 66.1467 251.458 66.1467C253.041 66.1467 253.748 67.1584 253.03 68.6633C253.182 70.0531 252.355 71.2418 251.184 71.3183C250.013 71.3948 248.941 70.3301 248.789 68.9402Z" fill="#222A72"/>
<path d="M249.674 69.0133C249.522 67.6234 250.634 66.2225 251.805 66.146C252.976 66.0696 253.763 67.3465 253.915 68.7363C254.067 70.1262 253.241 71.3149 252.069 71.3914C250.898 71.4679 249.826 70.4031 249.674 69.0133Z" fill="#A29D9D"/>
<path d="M129.379 139.094C129.227 137.704 130.086 136.301 132.049 136.301C133.631 136.301 134.339 137.312 133.62 138.817C133.772 140.207 132.946 141.396 131.775 141.472C130.604 141.549 129.531 140.484 129.379 139.094Z" fill="#222A72"/>
<path d="M130.265 139.167C130.113 137.777 131.225 136.376 132.396 136.3C133.567 136.223 134.354 137.5 134.506 138.89C134.657 140.28 133.831 141.469 132.66 141.545C131.489 141.622 130.416 140.557 130.265 139.167Z" fill="#A29D9D"/>
<path d="M252.768 140.778C252.768 141.183 251.814 141.877 250.636 141.877C249.458 141.877 248.504 141.549 248.504 141.144C248.504 140.739 248.504 140.045 250.636 140.411C251.814 140.411 252.768 140.373 252.768 140.778Z" fill="#08164C"/>
<path d="M252.768 141.041C252.768 141.446 251.814 141.774 250.636 141.774C249.458 141.774 248.504 141.446 248.504 141.041C248.504 140.636 249.458 140.308 250.636 140.308C251.814 140.308 252.768 140.308 252.768 141.041Z" fill="#2B3869"/>
<path d="M197.328 73.5927L202.304 70.1538L207.279 78.4072L202.304 82.5339L197.328 73.5927Z" fill="#9F9797"/>
<path d="M207.279 90.0998L212.254 86.6609L217.23 94.9143L212.254 99.041L207.279 90.0998Z" fill="#9F9797"/>
</svg>
