<svg width="116" height="42" viewBox="0 0 116 42" fill="none" xmlns="http://www.w3.org/2000/svg">
<path d="M29 8C29 7.44772 29.4477 7 30 7H114C115.105 7 116 7.89543 116 9V18.5V28C116 29.1046 115.105 30 114 30H55.7692H51.3077H45.7308H41.5921H30C29.4477 30 29 29.5523 29 29V8Z" fill="#514ED8"/>
<path d="M0 21V3C0 1.34315 1.34315 0 3 0H93.8497C95.5066 0 96.8497 1.34315 96.8497 3V6.41176C96.8497 6.96405 96.402 7.41176 95.8497 7.41176H42.1235C41.0189 7.41176 40.1235 8.3072 40.1235 9.41176V15.5352C40.1235 16.3109 39.2786 16.7912 38.612 16.3945L34.845 14.1523C33.5118 13.3587 31.8221 14.3194 31.8221 15.8709V20.725C31.8221 22.3695 33.6965 23.3113 35.0159 22.3296L38.5265 19.7176C39.1862 19.2267 40.1235 19.6976 40.1235 20.5199V27.6471C40.1235 28.7516 41.0189 29.6471 42.1235 29.6471H95.8497C96.402 29.6471 96.8497 30.0948 96.8497 30.6471V34.0588C96.8497 35.7157 95.5066 37.0588 93.8497 37.0588H30.0549C29.5026 37.0588 29.0549 37.5065 29.0549 38.0588V39C29.0549 40.6569 27.7118 42 26.0549 42H16.8357C15.1788 42 13.8357 40.6569 13.8357 39V38.0588C13.8357 37.5065 13.388 37.0588 12.8357 37.0588H3C1.34315 37.0588 0 35.7157 0 34.0588V29.6471V21Z" fill="#3D0B7A"/>
<path d="M15.8791 19.9068C15.8791 23.0234 14.2925 24.5818 11.1191 24.5818C7.94579 24.5818 6.35912 23.0234 6.35912 19.9068V12.9708C6.35912 12.7101 6.45545 12.4834 6.64812 12.2908C6.84079 12.0981 7.06745 12.0018 7.32812 12.0018H8.31412C8.57479 12.0018 8.80146 12.0981 8.99412 12.2908C9.18679 12.4834 9.28312 12.7101 9.28312 12.9708V20.1108C9.28312 20.8814 9.43045 21.4311 9.72512 21.7598C10.0198 22.0884 10.4958 22.2528 11.1531 22.2528C11.8105 22.2528 12.2865 22.0884 12.5811 21.7598C12.8758 21.4311 13.0231 20.8814 13.0231 20.1108V12.9708C13.0231 12.7101 13.1195 12.4834 13.3121 12.2908C13.5048 12.0981 13.7315 12.0018 13.9921 12.0018H14.9101C15.1708 12.0018 15.3975 12.0981 15.5901 12.2908C15.7828 12.4834 15.8791 12.7101 15.8791 12.9708V19.9068ZM20.8156 18.9378V21.0458C20.8156 21.4198 20.9856 21.7654 21.3256 22.0828C21.677 22.3888 22.0736 22.5418 22.5156 22.5418C23.037 22.5418 23.4506 22.3321 23.7566 21.9128C24.0626 21.4821 24.2156 20.8418 24.2156 19.9918C24.2156 18.2918 23.649 17.4418 22.5156 17.4418C22.0736 17.4418 21.677 17.6004 21.3256 17.9178C20.9856 18.2238 20.8156 18.5638 20.8156 18.9378ZM19.0986 28.1518C18.838 28.1518 18.6113 28.0554 18.4186 27.8628C18.226 27.6701 18.1296 27.4434 18.1296 27.1828V16.5408C18.1296 16.2801 18.226 16.0534 18.4186 15.8608C18.6113 15.6681 18.838 15.5718 19.0986 15.5718H19.7786C20.0506 15.5718 20.283 15.6681 20.4756 15.8608C20.6683 16.0421 20.7703 16.2688 20.7816 16.5408V16.6768C20.7816 16.6881 20.7873 16.6938 20.7986 16.6938L20.8326 16.6598C21.558 15.8211 22.4306 15.4018 23.4506 15.4018C24.5046 15.4018 25.3433 15.7984 25.9666 16.5918C26.6013 17.3851 26.9186 18.5184 26.9186 19.9918C26.9186 21.4198 26.59 22.5418 25.9326 23.3578C25.2866 24.1738 24.4593 24.5818 23.4506 24.5818C22.51 24.5818 21.6713 24.2361 20.9346 23.5448C20.9233 23.5334 20.912 23.5278 20.9006 23.5278C20.8893 23.5278 20.8836 23.5334 20.8836 23.5448V27.1828C20.8836 27.4434 20.7873 27.6701 20.5946 27.8628C20.402 28.0554 20.1753 28.1518 19.9146 28.1518H19.0986Z" fill="white"/>
<path d="M47.3115 14.1462V17.6182C47.3115 17.7035 47.3595 17.7462 47.4555 17.7462H48.2555C50.1542 17.7462 51.1035 17.0688 51.1035 15.7142C51.1035 14.5088 50.2235 13.9062 48.4635 13.9062C48.1435 13.9062 47.8075 13.9328 47.4555 13.9862C47.3595 14.0075 47.3115 14.0608 47.3115 14.1462ZM46.0155 24.0022C45.7702 24.0022 45.5568 23.9115 45.3755 23.7302C45.1942 23.5488 45.1035 23.3355 45.1035 23.0902V13.3142C45.1035 13.0582 45.1888 12.8288 45.3595 12.6262C45.5302 12.4235 45.7435 12.3115 45.9995 12.2902C46.9062 12.2048 47.7808 12.1622 48.6235 12.1622C50.1915 12.1622 51.3648 12.4555 52.1435 13.0422C52.9222 13.6182 53.3115 14.4342 53.3115 15.4902C53.3115 16.2475 53.1035 16.9142 52.6875 17.4902C52.2822 18.0662 51.7328 18.4715 51.0395 18.7062C51.0288 18.7062 51.0235 18.7115 51.0235 18.7222C51.0235 18.7435 51.0288 18.7542 51.0395 18.7542C51.5515 19.0742 51.9888 19.7035 52.3515 20.6422L53.3115 23.1542C53.3862 23.3568 53.3595 23.5488 53.2315 23.7302C53.1142 23.9115 52.9488 24.0022 52.7355 24.0022H52.2395C51.9622 24.0022 51.7115 23.9275 51.4875 23.7782C51.2635 23.6182 51.1035 23.4102 51.0075 23.1542L50.1115 20.6902C49.9195 20.1782 49.7008 19.8422 49.4555 19.6822C49.2102 19.5222 48.7888 19.4422 48.1915 19.4422H47.4555C47.3595 19.4422 47.3115 19.4902 47.3115 19.5862V23.0902C47.3115 23.3355 47.2208 23.5488 47.0395 23.7302C46.8688 23.9115 46.6608 24.0022 46.4155 24.0022H46.0155ZM59.6676 17.7462C59.3583 17.2982 58.889 17.0742 58.2596 17.0742C57.6303 17.0742 57.1556 17.2982 56.8356 17.7462C56.5263 18.1835 56.3716 18.8822 56.3716 19.8422C56.3716 20.8022 56.5263 21.5062 56.8356 21.9542C57.1556 22.3915 57.6303 22.6102 58.2596 22.6102C58.889 22.6102 59.3583 22.3915 59.6676 21.9542C59.9876 21.5062 60.1476 20.8022 60.1476 19.8422C60.1476 18.8822 59.9876 18.1835 59.6676 17.7462ZM61.2356 23.0422C60.5316 23.7888 59.5396 24.1622 58.2596 24.1622C56.9796 24.1622 55.9823 23.7888 55.2676 23.0422C54.5636 22.2848 54.2116 21.2182 54.2116 19.8422C54.2116 18.4662 54.5636 17.4048 55.2676 16.6582C55.9823 15.9008 56.9796 15.5222 58.2596 15.5222C59.5396 15.5222 60.5316 15.9008 61.2356 16.6582C61.9503 17.4048 62.3076 18.4662 62.3076 19.8422C62.3076 21.2182 61.9503 22.2848 61.2356 23.0422ZM66.1511 18.7542V20.9302C66.1511 21.3568 66.3325 21.7355 66.6951 22.0662C67.0578 22.3968 67.4898 22.5622 67.9911 22.5622C68.5565 22.5622 69.0045 22.3382 69.3351 21.8902C69.6658 21.4315 69.8311 20.7488 69.8311 19.8422C69.8311 18.0288 69.2178 17.1222 67.9911 17.1222C67.4898 17.1222 67.0578 17.2875 66.6951 17.6182C66.3325 17.9488 66.1511 18.3275 66.1511 18.7542ZM64.9511 24.0022C64.7058 24.0022 64.4925 23.9115 64.3111 23.7302C64.1298 23.5488 64.0391 23.3355 64.0391 23.0902V12.9142C64.0391 12.6688 64.1298 12.4555 64.3111 12.2742C64.4925 12.0928 64.7058 12.0022 64.9511 12.0022H65.2711C65.5165 12.0022 65.7298 12.0928 65.9111 12.2742C66.0925 12.4555 66.1831 12.6688 66.1831 12.9142V16.5142C66.1831 16.5248 66.1885 16.5302 66.1991 16.5302C66.2098 16.5302 66.2205 16.5248 66.2311 16.5142C66.9245 15.8528 67.7245 15.5222 68.6311 15.5222C69.6338 15.5222 70.4338 15.9008 71.0311 16.6582C71.6391 17.4048 71.9431 18.4662 71.9431 19.8422C71.9431 21.1755 71.6285 22.2315 70.9991 23.0102C70.3698 23.7782 69.5805 24.1622 68.6311 24.1622C67.6605 24.1622 66.8231 23.7675 66.1191 22.9782C66.1085 22.9675 66.0978 22.9622 66.0871 22.9622C66.0765 22.9622 66.0711 22.9675 66.0711 22.9782L66.0551 23.0902C66.0445 23.3462 65.9485 23.5648 65.7671 23.7462C65.5965 23.9168 65.3831 24.0022 65.1271 24.0022H64.9511ZM78.7301 17.7462C78.4208 17.2982 77.9515 17.0742 77.3221 17.0742C76.6928 17.0742 76.2181 17.2982 75.8981 17.7462C75.5888 18.1835 75.4341 18.8822 75.4341 19.8422C75.4341 20.8022 75.5888 21.5062 75.8981 21.9542C76.2181 22.3915 76.6928 22.6102 77.3221 22.6102C77.9515 22.6102 78.4208 22.3915 78.7301 21.9542C79.0501 21.5062 79.2101 20.8022 79.2101 19.8422C79.2101 18.8822 79.0501 18.1835 78.7301 17.7462ZM80.2981 23.0422C79.5941 23.7888 78.6021 24.1622 77.3221 24.1622C76.0421 24.1622 75.0448 23.7888 74.3301 23.0422C73.6261 22.2848 73.2741 21.2182 73.2741 19.8422C73.2741 18.4662 73.6261 17.4048 74.3301 16.6582C75.0448 15.9008 76.0421 15.5222 77.3221 15.5222C78.6021 15.5222 79.5941 15.9008 80.2981 16.6582C81.0128 17.4048 81.3701 18.4662 81.3701 19.8422C81.3701 21.2182 81.0128 22.2848 80.2981 23.0422ZM83.2334 17.5542C83.02 17.5542 82.8387 17.4795 82.6894 17.3302C82.54 17.1702 82.4654 16.9835 82.4654 16.7702C82.4654 16.5568 82.54 16.3755 82.6894 16.2262C82.8387 16.0768 83.02 16.0022 83.2334 16.0022H84.0014C84.0974 16.0022 84.1454 15.9542 84.1454 15.8582V13.8742C84.1454 13.6288 84.2307 13.4155 84.4014 13.2342C84.5827 13.0528 84.796 12.9622 85.0414 12.9622H85.3614C85.6067 12.9622 85.82 13.0528 86.0014 13.2342C86.1827 13.4155 86.2734 13.6288 86.2734 13.8742V15.8582C86.2734 15.9542 86.3214 16.0022 86.4174 16.0022H88.2414C88.4547 16.0022 88.636 16.0768 88.7854 16.2262C88.9454 16.3755 89.0254 16.5568 89.0254 16.7702C89.0254 16.9835 88.9454 17.1702 88.7854 17.3302C88.636 17.4795 88.4547 17.5542 88.2414 17.5542H86.4174C86.3214 17.5542 86.2734 17.5968 86.2734 17.6822V20.9142C86.2734 21.6075 86.348 22.0555 86.4974 22.2582C86.6467 22.4608 86.956 22.5622 87.4254 22.5622C87.6814 22.5622 87.8734 22.5515 88.0014 22.5302C88.2147 22.5088 88.4014 22.5568 88.5614 22.6742C88.7214 22.7915 88.8014 22.9515 88.8014 23.1542C88.8014 23.3888 88.7214 23.6022 88.5614 23.7942C88.412 23.9755 88.2254 24.0768 88.0014 24.0982C87.532 24.1408 87.18 24.1622 86.9454 24.1622C85.9107 24.1622 85.1854 23.9435 84.7694 23.5062C84.3534 23.0582 84.1454 22.2635 84.1454 21.1222V17.6822C84.1454 17.5968 84.0974 17.5542 84.0014 17.5542H83.2334ZM92.6324 24.0022C92.387 24.0022 92.1737 23.9115 91.9924 23.7302C91.811 23.5488 91.7204 23.3355 91.7204 23.0902V16.5942C91.7204 16.3488 91.811 16.1355 91.9924 15.9542C92.1737 15.7728 92.387 15.6822 92.6324 15.6822H93.0484C93.2937 15.6822 93.507 15.7728 93.6884 15.9542C93.8697 16.1355 93.9604 16.3488 93.9604 16.5942V23.0902C93.9604 23.3355 93.8697 23.5488 93.6884 23.7302C93.507 23.9115 93.2937 24.0022 93.0484 24.0022H92.6324ZM92.6324 13.9222C92.387 13.9222 92.1737 13.8315 91.9924 13.6502C91.811 13.4688 91.7204 13.2555 91.7204 13.0102V12.9142C91.7204 12.6688 91.811 12.4555 91.9924 12.2742C92.1737 12.0928 92.387 12.0022 92.6324 12.0022H93.0484C93.2937 12.0022 93.507 12.0928 93.6884 12.2742C93.8697 12.4555 93.9604 12.6688 93.9604 12.9142V13.0102C93.9604 13.2555 93.8697 13.4688 93.6884 13.6502C93.507 13.8315 93.2937 13.9222 93.0484 13.9222H92.6324ZM100.215 24.1622C98.892 24.1622 97.8733 23.7995 97.1586 23.0742C96.444 22.3382 96.0866 21.2608 96.0866 19.8422C96.0866 18.4448 96.428 17.3782 97.1106 16.6422C97.804 15.8955 98.7853 15.5222 100.055 15.5222C100.62 15.5222 101.164 15.5595 101.687 15.6342C101.932 15.6662 102.135 15.7782 102.295 15.9702C102.455 16.1622 102.535 16.3862 102.535 16.6422C102.535 16.8555 102.449 17.0262 102.279 17.1542C102.119 17.2822 101.932 17.3248 101.719 17.2822C101.303 17.1968 100.839 17.1542 100.327 17.1542C99.6546 17.1542 99.1533 17.3675 98.8226 17.7942C98.492 18.2208 98.3266 18.9035 98.3266 19.8422C98.3266 20.8022 98.5026 21.4902 98.8546 21.9062C99.2066 22.3222 99.7506 22.5302 100.487 22.5302C101.009 22.5302 101.463 22.4822 101.847 22.3862C102.049 22.3328 102.231 22.3702 102.391 22.4982C102.561 22.6262 102.647 22.7915 102.647 22.9942C102.647 23.2502 102.567 23.4742 102.407 23.6662C102.257 23.8582 102.06 23.9755 101.815 24.0182C101.271 24.1142 100.737 24.1622 100.215 24.1622ZM107.636 20.6422C106.516 20.3968 105.716 20.0608 105.236 19.6342C104.766 19.2075 104.532 18.6528 104.532 17.9702C104.532 17.2022 104.814 16.6048 105.38 16.1782C105.956 15.7408 106.804 15.5222 107.924 15.5222C108.628 15.5222 109.326 15.5862 110.02 15.7142C110.254 15.7568 110.441 15.8742 110.58 16.0662C110.729 16.2475 110.804 16.4608 110.804 16.7062C110.804 16.9088 110.724 17.0742 110.564 17.2022C110.404 17.3195 110.222 17.3515 110.02 17.2982C109.422 17.1488 108.793 17.0742 108.132 17.0742C107.172 17.0742 106.692 17.3408 106.692 17.8742C106.692 18.1302 106.782 18.3435 106.964 18.5142C107.145 18.6848 107.454 18.8182 107.892 18.9142C109.118 19.1595 109.956 19.4902 110.404 19.9062C110.862 20.3222 111.092 20.9302 111.092 21.7302C111.092 22.4982 110.804 23.0955 110.228 23.5222C109.652 23.9488 108.814 24.1622 107.716 24.1622C107.001 24.1622 106.27 24.0768 105.524 23.9062C105.289 23.8528 105.097 23.7302 104.948 23.5382C104.798 23.3355 104.724 23.1062 104.724 22.8502C104.724 22.6475 104.804 22.4928 104.964 22.3862C105.134 22.2795 105.316 22.2528 105.508 22.3062C106.201 22.4982 106.857 22.5942 107.476 22.5942C108.446 22.5942 108.932 22.3062 108.932 21.7302C108.932 21.4528 108.836 21.2342 108.644 21.0742C108.462 20.9142 108.126 20.7702 107.636 20.6422Z" fill="white"/>
</svg>
